<svg width="85" height="64" viewBox="0 0 85 64" fill="none" xmlns="http://www.w3.org/2000/svg">
<path d="M80.3688 63.8398C80.1266 63.7264 79.8701 63.5562 79.7846 63.4428C79.6991 63.3294 79.2288 61.2449 78.7443 58.8061C78.2598 56.3672 77.8324 54.297 77.8039 54.1977C77.7611 54.0984 78.0176 53.8574 78.3596 53.6589C78.7016 53.4462 79.1433 53.0633 79.3571 52.7797L79.7418 52.2693L77.5046 48.7527C76.2649 46.8243 74.9539 44.7399 74.5692 44.1444C73.9279 43.1092 73.7284 42.6413 74.0134 42.8115C74.0704 42.854 74.3269 42.4428 74.5692 41.8898C74.9396 41.0532 74.9824 40.8405 74.8542 40.5569C74.7687 40.3584 74.6119 40.2024 74.4979 40.2024C74.3982 40.2024 74.3127 40.1457 74.3127 40.0748C74.3127 39.8763 77.3194 37.4941 77.5046 37.5367C77.5901 37.565 77.9464 38.1606 78.2884 38.8554C78.8583 40.0181 78.9866 40.5002 79.7418 44.2436C81.9505 55.2328 83.29 62.1808 83.29 62.6487C83.29 63.0741 83.2045 63.2301 82.777 63.542C82.1785 64.01 81.0386 64.1376 80.3688 63.8398Z" fill="#6E6D6F"/>
<path d="M67.145 62.1241C66.0763 61.7412 65.5918 60.9614 65.9195 60.1673C66.461 58.7919 72.0612 47.2213 72.2037 47.1221C72.3034 47.0654 72.4317 47.0228 72.4887 47.0512C72.6312 47.0937 75.0251 50.8229 75.0251 51.0073C75.0251 51.0924 74.8969 51.0498 74.7544 50.9222C74.4979 50.6811 74.4694 50.6953 74.3839 50.9647C74.0847 51.929 69.425 61.486 69.0687 61.8689C68.5985 62.3793 68.0855 62.4502 67.145 62.1241Z" fill="#6E6D6F"/>
<path d="M72.7309 36.7426L73.0444 36.4165L72.3604 34.8425C71.9187 33.8216 71.6194 33.2828 71.5054 33.3253C71.1634 33.4388 71.3202 33.1552 72.3889 31.5954C72.9589 30.7305 73.4577 29.9648 73.4862 29.8797C73.5147 29.7946 72.9589 29.3692 72.2464 28.9438L70.9782 28.164L70.6077 28.717C70.4082 29.0289 70.223 29.2841 70.1802 29.2841C69.938 29.2841 69.6815 28.7879 68.5842 26.3064L67.373 23.5414L66.7033 23.4421C65.8198 23.3145 64.9648 22.9742 64.3378 22.5063C64.067 22.2936 63.7821 22.1376 63.6966 22.1518C63.4401 22.1943 62.4853 20.8615 62.0578 19.8405C61.4736 18.4226 61.1886 16.6643 61.2171 14.4381C61.2171 13.403 61.2741 12.5522 61.3311 12.5522C61.4023 12.5522 61.5448 11.9141 61.6873 11.1201C61.8156 10.3402 62.0151 9.5036 62.1291 9.2909C62.3571 8.83716 62.9983 8.29833 63.2833 8.29833C63.7251 8.29833 64.2238 8.68118 64.6513 9.33344C64.8935 9.71629 65.321 10.1842 65.606 10.3686C66.1618 10.723 68.3847 11.3469 68.6982 11.2193C68.8122 11.1768 69.0117 11.3895 69.2112 11.8007C70.0947 13.5873 71.7619 14.7075 73.9137 14.9769L75.1391 15.1329V16.0262C75.1249 16.8061 75.0821 16.9053 74.8541 16.8345C74.7116 16.8061 74.5976 16.8486 74.5976 16.9479C74.5976 17.3307 73.6999 19.3017 73.1157 20.1808C72.7737 20.7055 72.2037 21.4145 71.8332 21.769C71.4769 22.1093 71.1777 22.4638 71.1777 22.5488C71.1777 22.6339 71.3059 22.9742 71.4627 23.3003C71.6194 23.6123 71.7477 23.9384 71.7477 24.0093C71.7477 24.2362 72.4887 24.8885 72.7452 24.8885C73.1157 24.8885 75.8089 26.5758 75.7946 26.7885C75.7804 26.8878 75.8516 26.9729 75.9371 26.9729C76.0226 26.9729 76.8491 27.4266 77.7753 27.9796C78.7016 28.5468 79.5281 28.9722 79.5993 28.9155C79.6848 28.8729 79.8558 28.9297 79.9841 29.0431C80.1123 29.1423 81.0956 29.7662 82.1643 30.3901C84.3018 31.6663 85 32.2193 85 32.6589C85 33.3679 84.202 34.7007 83.575 35.0269C83.233 35.197 83.1333 35.1829 82.4635 34.8C82.0645 34.5731 81.6513 34.3888 81.5515 34.3888C81.4518 34.3888 80.6823 33.9776 79.8416 33.4813C79.0008 32.9708 78.2741 32.6163 78.2313 32.7014C78.1743 32.7723 78.0461 32.829 77.9178 32.829C77.7183 32.829 77.7183 32.7865 77.9463 32.5454C78.0888 32.3895 78.1743 32.2477 78.1458 32.2193C77.9036 32.0492 74.5976 30.1349 74.5406 30.1349C74.4694 30.1349 75.9941 33.6656 76.1651 33.8925C76.3361 34.1052 76.1224 34.3321 74.3554 35.7784C72.8592 36.9978 72.0042 37.5083 72.7309 36.7426ZM70.6789 19.401C70.5364 18.8054 69.767 18.1106 68.9405 17.7987C67.3018 17.1889 65.663 17.2882 64.751 18.0397C64.2665 18.4509 63.782 19.3726 63.7678 19.8972C63.7678 20.2092 63.7963 20.195 64.238 19.7413C64.808 19.1315 65.378 19.0039 66.9598 19.1174C68.969 19.2592 70.2657 19.954 70.5792 21.0316C70.6504 21.3294 70.6932 21.2301 70.7217 20.5637C70.7502 20.1099 70.7359 19.5853 70.6789 19.401ZM71.4342 16.324C71.9614 16.0546 72.6597 15.3031 72.5457 15.1329C72.4887 15.0336 72.2749 15.0336 71.9329 15.1329C71.2347 15.3172 70.3797 15.1896 69.8667 14.8209C69.6387 14.6508 69.4107 14.5515 69.368 14.5941C69.2112 14.7501 69.7955 15.8277 70.223 16.1822C70.6932 16.5792 70.9069 16.5934 71.4342 16.324ZM66.0905 15.4023C66.4895 15.1471 67.316 14.2679 67.3302 14.0836C67.3302 14.0411 66.9598 14.0978 66.518 14.2112C65.606 14.4523 64.6513 14.3105 64.1668 13.8709C63.7251 13.4881 63.7251 13.7717 64.1383 14.5374C64.7225 15.615 65.3495 15.8844 66.0905 15.4023Z" fill="#6E6D6F"/>
<path d="M72.7452 47.6893C70.451 44.0876 68.5415 40.9965 68.4987 40.8405C68.4275 40.4435 68.9405 39.8621 70.1517 38.8979C71.2917 38.0046 75.7376 34.3888 75.9656 34.1761C76.2791 33.8783 78.2456 32.4036 78.3311 32.4036C78.3881 32.4036 79.1433 32.829 80.0126 33.3537L81.6085 34.3037L81.0671 34.7291C79.8843 35.6791 73.3722 40.9681 73.1869 41.1383C73.0159 41.2943 73.0872 41.4928 73.6999 42.4286C74.4124 43.5205 77.8466 48.8945 79.1718 51.0073C79.5566 51.617 79.8701 52.1842 79.8701 52.2693C79.8701 52.8932 78.1601 54.2402 77.3764 54.2402C76.9489 54.2402 76.7921 54.0134 72.7452 47.6893Z" fill="#FAFAFA"/>
<path d="M6.7544 47.434C3.2917 46.881 0.954736 44.7541 0.284996 41.5353C0.170997 40.9965 0.0712481 39.8905 0.0427485 39.0681L0 37.5792L2.22297 37.5367L4.44593 37.5083L4.53143 38.7419C4.68818 41.0248 5.28667 42.2159 6.65465 42.9816C7.35289 43.3645 7.52389 43.3928 8.83487 43.3928C10.1316 43.3928 10.3168 43.3645 11.0008 42.9816C11.6991 42.5988 12.3688 41.8473 12.7108 41.039C13.2808 39.7345 13.3093 35.4239 12.7678 33.7082C12.2121 31.9074 11.5708 31.4253 7.66639 29.8371C4.24644 28.4475 3.3772 28.008 2.40821 27.1147C0.954736 25.796 0.384744 24.0519 0.256496 20.4928C0.199497 18.6211 0.227997 18.0823 0.484493 16.877C1.41073 12.4104 4.50293 9.87227 9.02012 9.85809C11.6421 9.85809 13.6655 10.5954 15.1903 12.1126C16.715 13.6299 17.3135 15.2038 17.5415 18.2666L17.6412 19.642H15.3613H13.0813L12.9958 18.4084C12.8818 16.7068 12.5826 15.927 11.6991 15.0195C10.8868 14.197 10.2313 13.9418 8.90612 13.9418C6.68315 13.9418 5.32942 15.218 4.90193 17.7136C4.64543 19.2308 4.78793 21.9533 5.18692 22.8324C5.79966 24.2078 6.5834 24.7183 10.3311 26.2355C11.6278 26.7602 13.1241 27.4124 13.6798 27.696C15.4895 28.6461 16.715 30.1916 17.2422 32.191C17.798 34.3463 17.7837 39.8763 17.1995 42.1309C16.5583 44.6406 14.5918 46.4982 11.8273 47.2213C10.8156 47.4907 7.88013 47.6184 6.7544 47.434Z" fill="#FAFAFA"/>
<path d="M29.0268 47.2922C27.6161 46.9236 26.6899 46.3989 25.5784 45.3496C24.4526 44.3003 23.7971 43.2369 23.3127 41.7196L22.9422 40.5569V25.3847V10.2126L25.1794 10.17L27.4166 10.1275L27.4593 25.2713L27.5021 40.4151L27.8441 41.1525C28.2146 41.9891 29.1693 42.9391 29.9673 43.2936C30.6655 43.5914 32.3185 43.5914 33.031 43.2794C33.9572 42.8824 34.6555 42.2301 35.083 41.3652L35.482 40.5569L35.5532 25.3847L35.6245 10.2126L37.8759 10.17L40.1132 10.1275V25.1295C40.1132 41.7622 40.1417 41.2092 39.1727 43.1518C38.2749 44.9668 36.679 46.3422 34.57 47.1221C33.2305 47.6184 30.5231 47.7034 29.0268 47.2922Z" fill="#FAFAFA"/>
<path d="M52.5817 47.434C50.9715 47.0937 49.347 46.1579 48.2925 44.9668C46.9673 43.4779 46.1408 41.0816 45.8131 37.8628C45.5851 35.6791 45.5851 21.4145 45.7988 19.5002C46.0126 17.6427 46.3546 16.0546 46.7536 14.9911C47.6798 12.538 49.86 10.5954 52.368 9.98571C53.622 9.67376 56.2297 9.74466 57.4267 10.1133C58.6664 10.4962 59.9916 11.2619 60.7896 12.0701L61.4024 12.694L61.3738 14.4239C61.3026 17.43 61.9581 19.8972 63.2121 21.4145L63.7963 22.1093L63.7251 29.9222C63.6823 34.7291 63.5968 38.1606 63.4971 38.8554C62.9556 42.6271 61.8298 44.7683 59.6781 46.2004C58.1676 47.2072 57.1987 47.4766 55.0042 47.5191C53.9925 47.5475 52.8952 47.5049 52.5817 47.434ZM56.3579 43.251C58.0109 42.4003 58.7804 40.5569 59.0796 36.7284C59.1794 35.4806 59.2079 31.9357 59.1651 27.299C59.1081 19.3584 59.0226 18.2666 58.3386 16.4232C57.9396 15.3881 56.8282 14.2112 56.0017 13.9844C54.9472 13.7008 53.7787 13.7858 52.9237 14.2112C51.627 14.8777 50.9003 16.1822 50.5155 18.5502C50.1023 21.1309 49.9598 30.22 50.2305 35.4523C50.5298 40.8972 51.3847 42.8682 53.7217 43.4779C54.306 43.6339 55.8877 43.4921 56.3579 43.251Z" fill="#FAFAFA"/>
<path d="M70.0235 34.2612C69.1542 33.9918 68.4417 33.4529 68.0997 32.8007C67.9145 32.432 67.9572 32.3469 69.368 30.22C70.166 29.0005 70.8927 28.008 70.964 28.008C71.0922 28.008 72.1039 28.5893 73.5717 29.511C73.8852 29.7237 73.8852 29.7237 72.3034 32.0492C71.4342 33.3395 70.6505 34.3888 70.565 34.3746C70.4652 34.3746 70.223 34.3179 70.0235 34.2612Z" fill="#FAFAFA"/>
<path d="M81.9933 30.5178C80.9246 29.8797 79.9556 29.27 79.8416 29.1707C79.7133 29.0714 79.2146 27.9087 78.7158 26.59C78.2171 25.2571 77.7611 24.1795 77.7041 24.1795C77.6471 24.1795 77.1911 24.775 76.7066 25.4982L75.8231 26.8311L74.4267 25.9945C73.6572 25.5265 73.0017 25.1012 72.9732 25.0444C72.9304 24.9877 73.6429 23.825 74.5549 22.4638L76.2079 19.9965L75.8944 19.1457C74.9681 16.6927 74.8684 16.3382 74.9539 15.8135L75.0394 15.2889L73.7854 15.1329C71.0067 14.7642 69.2112 13.1336 68.3847 10.1842C68.0285 8.90806 67.9573 5.07957 68.2422 3.05188C68.513 1.20853 68.798 0.542094 69.4535 0.159244C70.0947 -0.209425 70.622 0.0458096 71.363 1.0951C71.7619 1.6481 72.1467 2.01677 72.5599 2.21529C73.9707 2.89591 78.0461 3.36383 78.8583 2.92427C79.0436 2.82501 79.4711 2.52724 79.7988 2.272C80.9246 1.42123 81.6513 1.53467 82.1073 2.59814C82.3068 3.08024 82.3068 3.27876 82.093 4.7109C81.4803 8.7379 80.3403 11.4887 78.5163 13.3746L77.6329 14.2821L78.9011 17.6285C79.5993 19.4719 80.9958 23.1586 82.0075 25.8243C83.0193 28.4759 83.9313 30.8864 84.0595 31.17C84.2163 31.5529 84.2305 31.6947 84.1023 31.6947C84.0025 31.6805 83.062 31.1558 81.9933 30.5178ZM76.3931 12.4246C76.9916 12.0985 77.4761 11.4462 77.6471 10.8223C77.7611 10.3402 77.5901 10.3118 77.0059 10.7514C76.6211 11.0208 76.4074 11.0634 75.1249 11.0634C73.2154 11.0492 72.2179 10.7514 71.4342 9.97153C70.9925 9.53196 70.8357 9.44688 70.736 9.58868C70.5792 9.84391 70.7217 10.6663 71.021 11.2052C71.8189 12.5948 74.8541 13.2896 76.3931 12.4246ZM78.7871 7.33412C78.2313 6.24229 77.8181 6.04378 76.9489 6.45499C76.3646 6.73858 75.5096 7.54682 75.6379 7.68861C75.6664 7.71697 75.8659 7.67443 76.0796 7.58935C76.2934 7.51846 76.6924 7.44756 76.9631 7.44756C77.4761 7.44756 78.7728 8.01474 78.9581 8.32669C79.0436 8.45431 79.0863 8.45431 79.1291 8.32669C79.1576 8.22744 79.0008 7.77369 78.7871 7.33412ZM73.4577 6.85202C73.1727 6.07214 72.4887 5.32062 72.0754 5.32062C71.6907 5.32062 70.7075 5.97288 70.337 6.46917L69.995 6.92291L70.337 6.82366C71.4627 6.46917 72.1467 6.55425 73.0444 7.16397C73.3864 7.39084 73.6857 7.58935 73.6999 7.58935C73.7284 7.58935 73.6144 7.24905 73.4577 6.85202Z" fill="#FAFAFA"/>
</svg>
