<svg width="205" height="205" viewBox="0 0 205 205" fill="none" xmlns="http://www.w3.org/2000/svg">
<rect width="205" height="205" fill="black"/>
<path d="M34.3248 153.513C24.8727 152 18.4936 146.183 16.6654 137.379C16.3542 135.905 16.0819 132.88 16.0041 130.631L15.8875 126.559L21.9554 126.442L28.0234 126.365L28.2568 129.739C28.6847 135.983 30.3183 139.241 34.0525 141.335C35.9584 142.382 36.4252 142.46 40.0038 142.46C43.5434 142.46 44.0491 142.382 45.9161 141.335C47.8221 140.288 49.6503 138.232 50.5838 136.022C52.1397 132.454 52.2175 120.664 50.7394 115.971C49.2224 111.045 47.472 109.727 36.8142 105.383C27.4788 101.582 25.1061 100.38 22.4611 97.9366C18.4936 94.3298 16.9377 89.5595 16.5876 79.8249C16.432 74.7055 16.5098 73.2318 17.21 69.9352C19.7383 57.7185 28.179 50.7763 40.5094 50.7375C47.6665 50.7375 53.1899 52.7543 57.3519 56.9041C61.514 61.0539 63.1476 65.3588 63.77 73.7359L64.0423 77.4979H57.8187H51.5951L51.3618 74.1238C51.0506 69.4698 50.2337 67.3367 47.8221 64.8546C45.605 62.6052 43.8157 61.9071 40.1982 61.9071C34.1303 61.9071 30.435 65.3976 29.2681 72.2234C28.568 76.3732 28.9569 83.8196 30.0461 86.2241C31.7186 89.9861 33.858 91.3823 44.088 95.5321C47.6276 96.9671 51.7118 98.7511 53.2288 99.5267C58.1688 102.125 61.5139 106.353 62.9531 111.821C64.4701 117.716 64.4312 132.841 62.8365 139.008C61.0861 145.873 55.7183 150.953 48.1722 152.931C45.4105 153.668 37.3976 154.017 34.3248 153.513Z" fill="white"/>
<path d="M95.1203 153.033C91.2466 152.023 88.7033 150.586 85.6512 147.713C82.5601 144.839 80.7602 141.926 79.4298 137.771L78.4125 134.587V93.035V51.4831L84.5556 51.3666L90.6988 51.2501L90.8162 92.7243L90.9336 134.199L91.8727 136.218C92.89 138.509 95.5116 141.111 97.7028 142.082C99.6201 142.897 104.159 142.897 106.115 142.043C108.659 140.956 110.576 139.169 111.75 136.8L112.845 134.587L113.041 93.035L113.237 51.4831L119.419 51.3666L125.562 51.2501V92.336C125.562 137.888 125.64 136.373 122.98 141.693C120.515 146.664 116.132 150.431 110.341 152.567C106.663 153.926 99.2288 154.159 95.1203 153.033Z" fill="white"/>
<path d="M170.706 51.2578C175.115 52.1913 179.563 54.7585 182.45 58.0259C186.079 62.1101 188.342 68.6837 189.239 77.5133C189.864 83.5035 189.864 122.634 189.278 127.885C188.693 132.981 187.757 137.337 186.664 140.254C184.128 146.984 178.159 152.313 171.292 153.985C167.858 154.841 160.718 154.646 157.441 153.635C154.046 152.585 150.418 150.484 148.233 148.267L146.555 146.556L146.633 141.81C146.828 133.564 145.033 126.796 141.6 122.634L140 120.728L140.195 99.2957C140.312 86.1096 140.546 76.6965 140.819 74.7905C142.302 64.4439 145.384 58.5704 151.276 54.6418C155.412 51.8801 158.065 51.1411 164.073 51.0244C166.844 50.9466 169.848 51.0633 170.706 51.2578ZM160.367 62.7324C155.841 65.0663 153.734 70.1229 152.915 80.6251C152.642 84.0481 152.563 93.7723 152.681 106.492C152.837 128.274 153.071 131.269 154.943 136.326C156.036 139.165 159.079 142.394 161.342 143.016C164.23 143.794 167.429 143.561 169.77 142.394C173.32 140.566 175.31 136.987 176.364 130.491C177.495 123.412 177.885 98.4789 177.144 84.1259C176.325 69.1893 173.984 63.7826 167.585 62.1101C165.985 61.6822 161.654 62.0712 160.367 62.7324Z" fill="white"/>
<path d="M158.406 154.005C153.997 153.071 149.549 150.504 146.662 147.237C143.033 143.152 140.77 136.579 139.873 127.749C139.249 121.759 139.249 82.6286 139.834 77.3774C140.419 72.2819 141.356 67.9254 142.448 65.0082C144.984 58.279 150.954 52.95 157.821 51.2775C161.254 50.4217 168.394 50.6162 171.672 51.6275C175.066 52.6778 178.695 54.7782 180.88 56.9953L182.558 58.7068L182.48 63.4523C182.284 71.6985 184.079 78.4666 187.513 82.6286L189.112 84.5345L188.917 105.967C188.8 119.153 188.566 128.566 188.293 130.472C186.81 140.819 183.728 146.692 177.837 150.621C173.701 153.382 171.048 154.121 165.039 154.238C162.269 154.316 159.264 154.199 158.406 154.005ZM168.746 142.53C173.272 140.196 175.378 135.14 176.198 124.637C176.471 121.215 176.549 111.49 176.432 98.7709C176.276 76.9885 176.042 73.9934 174.169 68.9368C173.076 66.0973 170.033 62.8688 167.77 62.2465C164.883 61.4685 161.684 61.7019 159.343 62.8688C155.792 64.697 153.802 68.2755 152.749 74.7713C151.617 81.8506 151.227 106.784 151.968 121.137C152.788 136.073 155.129 141.48 161.527 143.152C163.127 143.58 167.458 143.191 168.746 142.53Z" fill="white"/>
</svg>
