<svg width="96" height="96" viewBox="0 0 96 96" fill="none" xmlns="http://www.w3.org/2000/svg">
<rect width="96" height="96" fill="black"/>
<path d="M54.792 74.5708C54.348 74.1508 54.18 73.5988 54.18 72.5068C54.18 71.6908 54.228 71.4028 54.456 70.9828C54.852 70.2268 55.32 70.0228 56.628 70.0228H57.684L57.636 71.7988C57.576 73.7068 57.468 74.0908 56.868 74.5708C56.412 74.9308 55.176 74.9308 54.792 74.5708Z" fill="black"/>
<path d="M58.8 57.7948C56.832 57.2788 56.112 55.6108 55.86 51.0028C55.632 46.5388 55.752 38.6428 56.1 36.4588C56.544 33.7108 57.636 32.4628 59.628 32.4628C60.876 32.4628 61.344 32.6308 62.052 33.3508C62.772 34.0708 63.084 34.8028 63.384 36.4588C63.54 37.3588 63.588 38.7268 63.624 43.9828C63.684 50.8228 63.588 53.1148 63.192 54.6868C62.784 56.2708 62.232 57.0988 61.248 57.6028C60.852 57.8188 59.316 57.9388 58.8 57.7948Z" fill="black"/>
<path d="M75.48 56.6787C75.252 56.3307 75.06 55.9587 75.06 55.8507C75.06 55.5867 76.104 54.7827 76.44 54.7827C76.632 54.7827 76.752 54.8907 76.86 55.1427C76.992 55.4667 76.968 55.5987 76.62 56.4027C76.404 56.8947 76.152 57.3027 76.068 57.3027C75.984 57.3027 75.72 57.0147 75.48 56.6787Z" fill="black"/>
<path d="M77.58 49.6708C77.58 49.5748 77.28 48.8068 76.92 47.9788C76.56 47.1508 76.26 46.4188 76.26 46.3708C76.26 46.1308 76.716 46.3108 78.12 47.1388C79.092 47.7028 79.608 48.0748 79.62 48.2068C79.62 48.4228 77.988 49.8628 77.736 49.8628C77.652 49.8628 77.58 49.7788 77.58 49.6708Z" fill="black"/>
<path d="M79.08 44.7027C78.36 44.2467 77.664 43.8747 77.556 43.8747C77.436 43.8627 77.34 43.7907 77.34 43.7067C77.34 43.4067 78.9 41.2227 79.116 41.2227C79.284 41.2227 79.5 41.6787 80.076 43.2387C80.484 44.3427 80.82 45.3147 80.82 45.3987C80.82 45.6867 80.388 45.5187 79.08 44.7027Z" fill="black"/>
<path d="M74.292 41.7508C74.124 41.5708 73.98 41.3788 73.98 41.3188C73.98 41.2588 73.872 40.9828 73.74 40.7188C73.392 39.9868 73.44 39.7708 74.052 39.1828C74.784 38.4748 75.576 37.2508 76.02 36.1468C76.224 35.6428 76.38 35.1868 76.38 35.1148C76.38 35.0428 76.512 34.9828 76.668 34.9828C76.92 34.9828 77.016 35.1268 77.448 36.2548C77.724 36.9508 77.94 37.6228 77.94 37.7548C77.94 37.8748 77.328 38.8948 76.596 40.0228C75.42 41.7868 75.204 42.0628 74.928 42.0628C74.748 42.0628 74.484 41.9308 74.292 41.7508Z" fill="black"/>
<path d="M72.972 38.7748C72.756 37.8988 71.616 37.2988 69.96 37.1788C68.796 37.0948 68.196 37.2628 67.836 37.7548C67.488 38.2228 67.26 38.1988 67.26 37.7188C67.272 36.7828 68.028 35.8348 68.976 35.5708C70.092 35.2708 72.168 35.7148 72.804 36.3988C73.296 36.9148 73.38 37.1908 73.38 38.1508C73.38 38.8468 73.344 39.0628 73.212 39.0628C73.116 39.0628 73.008 38.9308 72.972 38.7748Z" fill="black"/>
<path d="M72.732 34.7307C72.372 34.4427 71.94 33.6747 71.94 33.3027C71.94 32.9907 72.216 32.9907 72.672 33.3387C73.032 33.5907 73.488 33.6387 74.58 33.5187C75.012 33.4707 75.036 33.8547 74.616 34.2867C73.932 35.0067 73.284 35.1627 72.732 34.7307Z" fill="black"/>
<path d="M68.208 34.0827C67.896 33.9147 67.26 32.8827 67.26 32.5347C67.26 32.3067 67.656 32.2827 67.848 32.4987C67.92 32.5947 68.196 32.7267 68.46 32.8107C68.844 32.9187 69.06 32.9187 69.648 32.7627C70.032 32.6667 70.392 32.5827 70.428 32.5827C70.62 32.5827 70.452 33.0387 70.14 33.4107C69.444 34.2267 68.856 34.4307 68.208 34.0827Z" fill="black"/>
<path d="M75.18 31.6827C74.412 31.4667 73.716 31.0347 73.428 30.6027C73.176 30.2187 72.984 29.3667 73.08 29.0187C73.176 28.6227 73.44 28.6827 73.98 29.2227C74.604 29.8467 75.48 30.1107 76.944 30.1107C77.892 30.1227 78.084 30.0867 78.408 29.8587C78.6 29.7027 78.888 29.5827 79.032 29.5827C79.26 29.5827 79.284 29.6307 79.2 30.0147C79.092 30.6387 78.672 31.2027 78.12 31.5147C77.508 31.8627 76.116 31.9347 75.18 31.6827Z" fill="black"/>
<path d="M80.04 28.0228C79.992 27.9508 79.692 27.7588 79.356 27.5908C78.732 27.2788 78.54 27.2668 77.556 27.4948C77.052 27.6148 77.124 27.2428 77.7 26.6908C78.312 26.1028 78.972 25.8868 79.452 26.1148C80.052 26.4028 80.772 28.1428 80.292 28.1428C80.196 28.1428 80.076 28.0828 80.04 28.0228Z" fill="black"/>
<path d="M75.072 27.0628C74.436 26.6308 73.836 26.4988 73.32 26.6908C72.852 26.8588 72.54 26.8588 72.54 26.7028C72.54 26.2348 73.776 25.2628 74.376 25.2628C74.844 25.2628 75.372 25.7908 75.648 26.5348C75.792 26.8948 75.9 27.2428 75.9 27.3028C75.9 27.5068 75.612 27.4228 75.072 27.0628Z" fill="black"/>
<path d="M81.36 74.9068C81.156 74.8108 80.94 74.6668 80.868 74.5708C80.796 74.4748 80.4 72.7108 79.992 70.6468C79.584 68.5828 79.224 66.8308 79.2 66.7468C79.164 66.6628 79.38 66.4588 79.668 66.2908C79.956 66.1108 80.328 65.7868 80.508 65.5468L80.832 65.1148L78.948 62.1388C77.904 60.5068 76.8 58.7428 76.476 58.2388C75.936 57.3628 75.768 56.9668 76.008 57.1108C76.056 57.1468 76.272 56.7988 76.476 56.3308C76.788 55.6228 76.824 55.4428 76.716 55.2028C76.644 55.0348 76.512 54.9028 76.416 54.9028C76.332 54.9028 76.26 54.8548 76.26 54.7948C76.26 54.6268 78.792 52.6108 78.948 52.6468C79.02 52.6708 79.32 53.1748 79.608 53.7628C80.088 54.7468 80.196 55.1548 80.832 58.3228C82.692 67.6228 83.82 73.5028 83.82 73.8988C83.82 74.2588 83.748 74.3908 83.388 74.6548C82.884 75.0508 81.924 75.1588 81.36 74.9068Z" fill="#6E6D6F"/>
<path d="M70.224 73.4548C69.324 73.1308 68.916 72.4708 69.192 71.7988C69.648 70.6348 74.364 60.8428 74.484 60.7588C74.568 60.7108 74.676 60.6748 74.724 60.6988C74.844 60.7348 76.86 63.8908 76.86 64.0468C76.86 64.1188 76.752 64.0828 76.632 63.9748C76.416 63.7708 76.392 63.7828 76.32 64.0108C76.068 64.8268 72.144 72.9148 71.844 73.2388C71.448 73.6708 71.016 73.7308 70.224 73.4548Z" fill="#6E6D6F"/>
<path d="M74.928 51.9748L75.192 51.6988L74.616 50.3668C74.244 49.5028 73.992 49.0468 73.896 49.0828C73.608 49.1788 73.74 48.9388 74.64 47.6188C75.12 46.8868 75.54 46.2388 75.564 46.1668C75.588 46.0948 75.12 45.7348 74.52 45.3748L73.452 44.7148L73.14 45.1828C72.972 45.4468 72.816 45.6628 72.78 45.6628C72.576 45.6628 72.36 45.2428 71.436 43.1428L70.416 40.8028L69.852 40.7188C69.108 40.6108 68.388 40.3228 67.86 39.9268C67.632 39.7468 67.392 39.6148 67.32 39.6268C67.104 39.6628 66.3 38.5348 65.94 37.6708C65.448 36.4708 65.208 34.9828 65.232 33.0988C65.232 32.2228 65.28 31.5028 65.328 31.5028C65.388 31.5028 65.508 30.9628 65.628 30.2908C65.736 29.6308 65.904 28.9228 66 28.7428C66.192 28.3588 66.732 27.9028 66.972 27.9028C67.344 27.9028 67.764 28.2268 68.124 28.7788C68.328 29.1028 68.688 29.4988 68.928 29.6548C69.396 29.9548 71.268 30.4828 71.532 30.3748C71.628 30.3388 71.796 30.5188 71.964 30.8668C72.708 32.3788 74.112 33.3268 75.924 33.5548L76.956 33.6868V34.4428C76.944 35.1028 76.908 35.1868 76.716 35.1268C76.596 35.1028 76.5 35.1388 76.5 35.2228C76.5 35.5468 75.744 37.2148 75.252 37.9588C74.964 38.4028 74.484 39.0028 74.172 39.3028C73.872 39.5908 73.62 39.8908 73.62 39.9628C73.62 40.0348 73.728 40.3228 73.86 40.5988C73.992 40.8628 74.1 41.1388 74.1 41.1988C74.1 41.3908 74.724 41.9428 74.94 41.9428C75.252 41.9428 77.52 43.3708 77.508 43.5508C77.496 43.6348 77.556 43.7068 77.628 43.7068C77.7 43.7068 78.396 44.0908 79.176 44.5588C79.956 45.0388 80.652 45.3988 80.712 45.3508C80.784 45.3148 80.928 45.3628 81.036 45.4588C81.144 45.5428 81.972 46.0708 82.872 46.5988C84.672 47.6788 85.26 48.1468 85.26 48.5188C85.26 49.1188 84.588 50.2468 84.06 50.5228C83.772 50.6668 83.688 50.6548 83.124 50.3308C82.788 50.1388 82.44 49.9828 82.356 49.9828C82.272 49.9828 81.624 49.6348 80.916 49.2148C80.208 48.7828 79.596 48.4828 79.56 48.5548C79.512 48.6148 79.404 48.6628 79.296 48.6628C79.128 48.6628 79.128 48.6268 79.32 48.4228C79.44 48.2908 79.512 48.1708 79.488 48.1468C79.284 48.0028 76.5 46.3828 76.452 46.3828C76.392 46.3828 77.676 49.3708 77.82 49.5628C77.964 49.7428 77.784 49.9348 76.296 51.1588C75.036 52.1908 74.316 52.6228 74.928 51.9748ZM73.2 37.2988C73.08 36.7948 72.432 36.2068 71.736 35.9428C70.356 35.4268 68.976 35.5108 68.208 36.1468C67.8 36.4948 67.392 37.2748 67.38 37.7188C67.38 37.9828 67.404 37.9708 67.776 37.5868C68.256 37.0708 68.736 36.9628 70.068 37.0588C71.76 37.1788 72.852 37.7668 73.116 38.6788C73.176 38.9308 73.212 38.8468 73.236 38.2828C73.26 37.8988 73.248 37.4548 73.2 37.2988ZM73.836 34.6948C74.28 34.4668 74.868 33.8308 74.772 33.6868C74.724 33.6028 74.544 33.6028 74.256 33.6868C73.668 33.8428 72.948 33.7348 72.516 33.4228C72.324 33.2788 72.132 33.1948 72.096 33.2308C71.964 33.3628 72.456 34.2748 72.816 34.5748C73.212 34.9108 73.392 34.9228 73.836 34.6948ZM69.336 33.9148C69.672 33.6988 70.368 32.9548 70.38 32.7988C70.38 32.7628 70.068 32.8108 69.696 32.9068C68.928 33.1108 68.124 32.9908 67.716 32.6188C67.344 32.2948 67.344 32.5348 67.692 33.1828C68.184 34.0948 68.712 34.3228 69.336 33.9148Z" fill="#6E6D6F"/>
<path d="M74.94 61.2388C73.008 58.1908 71.4 55.5748 71.364 55.4428C71.304 55.1068 71.736 54.6148 72.756 53.7988C73.716 53.0428 77.46 49.9828 77.652 49.8028C77.916 49.5508 79.572 48.3028 79.644 48.3028C79.692 48.3028 80.328 48.6628 81.06 49.1068L82.404 49.9108L81.948 50.2708C80.952 51.0748 75.468 55.5508 75.312 55.6948C75.168 55.8268 75.228 55.9948 75.744 56.7868C76.344 57.7108 79.236 62.2588 80.352 64.0468C80.676 64.5628 80.94 65.0428 80.94 65.1148C80.94 65.6428 79.5 66.7828 78.84 66.7828C78.48 66.7828 78.348 66.5908 74.94 61.2388Z" fill="white"/>
<path d="M19.368 61.0228C16.452 60.5548 14.484 58.7548 13.92 56.0308C13.824 55.5748 13.74 54.6388 13.716 53.9428L13.68 52.6828L15.552 52.6468L17.424 52.6228L17.496 53.6668C17.628 55.5988 18.132 56.6068 19.284 57.2548C19.872 57.5788 20.016 57.6028 21.12 57.6028C22.212 57.6028 22.368 57.5788 22.944 57.2548C23.532 56.9308 24.096 56.2948 24.384 55.6108C24.864 54.5068 24.888 50.8588 24.432 49.4068C23.964 47.8828 23.424 47.4748 20.136 46.1308C17.256 44.9548 16.524 44.5828 15.708 43.8268C14.484 42.7108 14.004 41.2348 13.896 38.2228C13.848 36.6388 13.872 36.1828 14.088 35.1628C14.868 31.3828 17.472 29.2348 21.276 29.2228C23.484 29.2228 25.188 29.8468 26.472 31.1308C27.756 32.4148 28.26 33.7468 28.452 36.3388L28.536 37.5028H26.616H24.696L24.624 36.4588C24.528 35.0188 24.276 34.3588 23.532 33.5908C22.848 32.8948 22.296 32.6788 21.18 32.6788C19.308 32.6788 18.168 33.7588 17.808 35.8708C17.592 37.1548 17.712 39.4588 18.048 40.2028C18.564 41.3668 19.224 41.7988 22.38 43.0828C23.472 43.5268 24.732 44.0788 25.2 44.3188C26.724 45.1228 27.756 46.4308 28.2 48.1228C28.668 49.9468 28.656 54.6268 28.164 56.5348C27.624 58.6588 25.968 60.2308 23.64 60.8428C22.788 61.0708 20.316 61.1788 19.368 61.0228Z" fill="white"/>
<path d="M38.124 60.9028C36.936 60.5908 36.156 60.1468 35.22 59.2588C34.272 58.3708 33.72 57.4708 33.312 56.1868L33 55.2028V42.3628V29.5228L34.884 29.4868L36.768 29.4508L36.804 42.2668L36.84 55.0828L37.128 55.7068C37.44 56.4148 38.244 57.2188 38.916 57.5188C39.504 57.7708 40.896 57.7708 41.496 57.5068C42.276 57.1708 42.864 56.6188 43.224 55.8868L43.56 55.2028L43.62 42.3628L43.68 29.5228L45.576 29.4868L47.46 29.4508V42.1468C47.46 56.2228 47.484 55.7548 46.668 57.3988C45.912 58.9348 44.568 60.0988 42.792 60.7588C41.664 61.1788 39.384 61.2508 38.124 60.9028Z" fill="white"/>
<path d="M57.96 61.0228C56.604 60.7348 55.236 59.9428 54.348 58.9348C53.232 57.6748 52.536 55.6468 52.26 52.9228C52.068 51.0748 52.068 39.0028 52.248 37.3828C52.428 35.8108 52.716 34.4668 53.052 33.5668C53.832 31.4908 55.668 29.8468 57.78 29.3308C58.836 29.0668 61.032 29.1268 62.04 29.4388C63.084 29.7628 64.2 30.4108 64.872 31.0948L65.388 31.6228L65.364 33.0868C65.304 35.6308 65.856 37.7188 66.912 39.0028L67.404 39.5908L67.344 46.2028C67.308 50.2708 67.236 53.1748 67.152 53.7628C66.696 56.9548 65.748 58.7668 63.936 59.9788C62.664 60.8308 61.848 61.0588 60 61.0948C59.148 61.1188 58.224 61.0828 57.96 61.0228ZM61.14 57.4828C62.532 56.7628 63.18 55.2028 63.432 51.9628C63.516 50.9068 63.54 47.9068 63.504 43.9828C63.456 37.2628 63.384 36.3388 62.808 34.7788C62.472 33.9028 61.536 32.9068 60.84 32.7148C59.952 32.4748 58.968 32.5468 58.248 32.9068C57.156 33.4708 56.544 34.5748 56.22 36.5788C55.872 38.7628 55.752 46.4548 55.98 50.8828C56.232 55.4908 56.952 57.1588 58.92 57.6748C59.412 57.8068 60.744 57.6868 61.14 57.4828Z" fill="white"/>
<path d="M72.648 49.8748C71.916 49.6468 71.316 49.1908 71.028 48.6388C70.872 48.3268 70.908 48.2548 72.096 46.4548C72.768 45.4228 73.38 44.5828 73.44 44.5828C73.548 44.5828 74.4 45.0748 75.636 45.8548C75.9 46.0348 75.9 46.0348 74.568 48.0028C73.836 49.0948 73.176 49.9828 73.104 49.9708C73.02 49.9708 72.816 49.9228 72.648 49.8748Z" fill="white"/>
<path d="M82.728 46.7068C81.828 46.1668 81.012 45.6508 80.916 45.5668C80.808 45.4828 80.388 44.4988 79.968 43.3828C79.548 42.2548 79.164 41.3428 79.116 41.3428C79.068 41.3428 78.684 41.8468 78.276 42.4588L77.532 43.5868L76.356 42.8788C75.708 42.4828 75.156 42.1228 75.132 42.0748C75.096 42.0268 75.696 41.0428 76.464 39.8908L77.856 37.8028L77.592 37.0828C76.812 35.0068 76.728 34.7068 76.8 34.2628L76.872 33.8188L75.816 33.6868C73.476 33.3748 71.964 31.9948 71.268 29.4988C70.968 28.4188 70.908 25.1788 71.148 23.4628C71.376 21.9028 71.616 21.3388 72.168 21.0148C72.708 20.7028 73.152 20.9188 73.776 21.8068C74.112 22.2748 74.436 22.5868 74.784 22.7548C75.972 23.3308 79.404 23.7268 80.088 23.3548C80.244 23.2708 80.604 23.0188 80.88 22.8028C81.828 22.0828 82.44 22.1788 82.824 23.0788C82.992 23.4868 82.992 23.6548 82.812 24.8668C82.296 28.2748 81.336 30.6028 79.8 32.1988L79.056 32.9668L80.124 35.7988C80.712 37.3588 81.888 40.4788 82.74 42.7348C83.592 44.9788 84.36 47.0188 84.468 47.2588C84.6 47.5828 84.612 47.7028 84.504 47.7028C84.42 47.6908 83.628 47.2468 82.728 46.7068ZM78.012 31.3948C78.516 31.1188 78.924 30.5668 79.068 30.0388C79.164 29.6308 79.02 29.6068 78.528 29.9788C78.204 30.2068 78.024 30.2428 76.944 30.2428C75.336 30.2308 74.496 29.9788 73.836 29.3188C73.464 28.9468 73.332 28.8748 73.248 28.9948C73.116 29.2108 73.236 29.9068 73.488 30.3628C74.16 31.5388 76.716 32.1268 78.012 31.3948ZM80.028 27.0868C79.56 26.1628 79.212 25.9948 78.48 26.3428C77.988 26.5828 77.268 27.2668 77.376 27.3868C77.4 27.4108 77.568 27.3748 77.748 27.3028C77.928 27.2428 78.264 27.1828 78.492 27.1828C78.924 27.1828 80.016 27.6628 80.172 27.9268C80.244 28.0348 80.28 28.0348 80.316 27.9268C80.34 27.8428 80.208 27.4588 80.028 27.0868ZM75.54 26.6788C75.3 26.0188 74.724 25.3828 74.376 25.3828C74.052 25.3828 73.224 25.9348 72.912 26.3548L72.624 26.7388L72.912 26.6548C73.86 26.3548 74.436 26.4268 75.192 26.9428C75.48 27.1348 75.732 27.3028 75.744 27.3028C75.768 27.3028 75.672 27.0148 75.54 26.6788Z" fill="white"/>
</svg>
